<svg width="1840" height="1380" viewBox="0 0 1840 1380" fill="none" xmlns="http://www.w3.org/2000/svg">
<path d="M801.6 563.733C758.667 563.733 587.467 559.333 536.4 558.133C537.6 484.533 539.334 455.467 564.134 435.467C585.6 418.133 610.934 418.933 644.667 419.067C780.534 419.333 848.534 419.467 948.667 422.933C1159.2 430.133 1183.73 430.533 1183.73 430.533C1234.67 430.533 1262.4 423.2 1284.4 442.8C1304.53 460.533 1306.27 486.267 1307.73 570.533C1260.67 569.2 1146 565.867 1107.47 564C1058.53 561.467 851.867 563.733 801.6 563.733Z" fill="#04B25F"/>
<path d="M1311.73 742.4C1311.33 882.267 1311.07 952.133 1292.4 976.8C1270.4 1005.87 1246.8 1013.6 977.6 1013.6C977.6 1013.6 874.533 1017.87 666.267 1009.73C636 1008.53 597.067 1016.8 567.733 992.8C547.067 975.867 535.067 947.867 530.933 836.8C528 758.933 532.4 733.6 534.933 639.733C535.6 615.733 535.867 594.533 536.133 576C566.4 576.267 618.4 576.533 639.067 575.733C668.933 574.533 931.867 581.733 953.333 580.533C974.8 579.333 1099.07 585.333 1123.07 582.933C1146.93 580.533 1241.33 585.333 1262.93 586.533C1274.93 587.2 1293.87 589.333 1308.27 591.067C1308.4 601.6 1308.67 612.8 1308.8 624.933C1310.67 725.2 1311.87 699.6 1311.73 742.4Z" fill="#04B25F"/>
<path d="M1308.13 591.067C1293.73 589.334 1274.8 587.2 1262.8 586.533C1241.33 585.333 1146.93 580.534 1122.93 582.934C1099.07 585.333 974.8 579.334 953.2 580.534C931.733 581.733 668.8 574.534 638.933 575.734C618.267 576.534 566.267 576.267 536 576C536.133 569.734 536.133 563.867 536.267 558.134C587.333 559.467 758.533 563.734 801.467 563.734C851.6 563.734 1058.4 561.334 1107.33 563.734C1145.87 565.6 1260.53 568.934 1307.6 570.267C1308 576.934 1308.13 583.867 1308.13 591.067Z" fill="#FFF200"/>
<path d="M664.534 493.6C662.401 512.933 641.734 532.8 620.534 528.8C607.601 526.4 598.001 515.867 594.134 504.933C589.734 492.8 591.467 477.6 601.334 467.067C612.134 455.733 626.801 455.867 630.934 456.133C633.734 456.267 649.067 457.2 658.401 470.133C659.201 471.467 665.867 481.067 664.534 493.6Z" fill="#FA0018"/>
<path d="M779.199 492.8C779.332 502.8 774.799 514.533 765.066 521.067C757.599 526 749.732 526.133 745.732 526.267C741.199 526.4 733.066 526.533 725.732 521.6C713.199 513.2 712.532 496.933 712.266 492.8C711.999 487.6 711.466 475.867 719.999 466.667C731.466 454.133 749.066 457.2 749.999 457.333C766.666 460.4 779.066 476.4 779.199 492.8Z" fill="#FFF200"/>
<path d="M892.266 491.733C890.932 506.4 879.466 517.333 866.932 520.933C853.999 524.667 837.199 521.333 829.066 508.4C819.866 493.6 827.866 475.2 837.732 465.733C840.532 463.067 851.466 453.6 865.599 456C881.332 458.667 893.866 474.8 892.266 491.733Z" fill="white"/>
<path d="M755.199 624C755.199 624 707.733 664.533 694.533 681.2C681.199 697.867 609.199 764.267 609.199 764.267V792.667C609.199 792.667 673.733 857.2 682.266 870.4C690.666 883.867 789.333 954 789.333 954V910.4C789.333 910.4 701.999 845.867 688.799 834.533C675.466 823.2 628.266 781.467 628.266 781.467C677.333 736 704.266 712.267 720.133 698.933C723.199 696.4 731.199 689.6 741.599 680C758.533 664.267 771.199 650.4 779.333 641.067L755.199 624Z" fill="#FFF200"/>
<path d="M1074.8 616.933C1102.93 640.8 1124.8 661.333 1139.6 675.867C1163.07 699.333 1191.33 727.067 1224.53 758.933C1224.67 770.133 1224.8 781.333 1224.93 792.667C1216.67 800.133 1204.13 811.333 1189.07 825.2C1163.07 848.933 1145.6 864.933 1139.87 870.667C1139.87 870.667 1116.4 891.2 1040.67 950.133C1038.93 938.133 1037.2 926.133 1035.6 914.133C1040.4 909.867 1048 903.2 1057.33 895.333C1096.53 862.4 1106.53 858.933 1141.33 830.667L1201.87 777.6C1173.6 750 1143.33 722 1111.07 693.867C1089.47 675.067 1068.13 657.067 1047.2 640C1056.27 632.133 1065.47 624.533 1074.8 616.933Z" fill="#FA0018"/>
<path d="M1008.53 624C1008.53 624 957.067 707.6 944.4 726.533C931.734 745.467 880.267 814.8 872.934 831.6C865.601 848.4 809.867 929.333 809.867 929.333L838.267 944C838.267 944 879.201 870.4 892.401 856.8C905.6 843.2 951.734 767.467 960.134 753.867C968.534 740.267 1027.33 641.467 1027.33 641.467L1008.53 624Z" fill="white"/>
</svg>
